  http://img.sceper.eu/images/img213srs.jpg
  
http://img.sceper.eu/images/img213lgl.jpg
  
http://img.sceper.eu/images/img213kek.jpg


Full Credits To Feel Free :)

 ######## ######## ######## ##          ######## ########  ######## ######## 
 ##       ##       ##       ##          ##       ##     ## ##       ##       
 ##       ##       ##       ##          ##       ##     ## ##       ##       
 ######   ######   ######   ##          ######   ########  ######   ######   
 ##       ##       ##       ##          ##       ##   ##   ##       ##       
 ##       ##       ##       ##          ##       ##    ##  ##       ##       
 ##       ######## ######## ########    ##       ##     ## ######## ########



 Plot:
 When the evil wizard Gargamel chases the tiny blue Smurfs out of their village, they tumble from their magical world and into ours.


Genre:Animation | Comedy | Family 
 Language:English
 IMDb:
  
http://www.imdb.com/title/tt0472181/

 Source:DvD9/LittlebirD Thanks!

 Format : MPEG-4
 Format profile : Base Media
 Codec ID : isom
 File size : 1.08 GiB
 Duration : 1h 38mn
 Overall bit rate : 1 720 Kbps

 Video
 ID : 1
 Format : AVC
 Format/Info : Advanced Video Codec
 Format profile : High@L4.1
 Format settings, CABAC : Yes
 Format settings, ReFrames : 3 frames
 Codec ID : avc1
 Codec ID/Info : Advanced Video Coding
 Duration : 1h 38mn
 Bit rate mode : Variable
 Bit rate : 1 500 Kbps
 Maximum bit rate : 12.0 Mbps
 Width : 720 pixels
 Height : 400 pixels
 Display aspect ratio : 16:9
 Frame rate mode : Constant
 Frame rate : 25.000 fps
 Color space : YUV
 Chroma subsampling : 4:2:0
 Bit depth : 8 bits
 Scan type : Progressive
 Bits/(Pixel*Frame) : 0.208
 Stream size : 1.03 GiB (87%)
 Writing library : x264


 Audio
 ID : 2
 Format : AAC
 Format/Info : Advanced Audio Codec
 Format version : Version 4
 Format profile : LC
 Format settings, SBR : No
 Codec ID : 40
 Duration : 1h 38mn
 Bit rate mode : Variable
 Bit rate : 224 Kbps
 Maximum bit rate : 279 Kbps
 Channel(s) : 2 channels
 Channel positions : Front: L R
 Sampling rate : 44.1 KHz
 Stream size : 158 MiB (13%)

PLEASE SEED - MANY THANKS (Stumpie1971)
ENJOY ::
